<?xml version="1.0" standalone="no"?>
<!DOCTYPE svg PUBLIC "-//W3C//DTD SVG 20010904//EN"
 "http://www.w3.org/TR/2001/REC-SVG-20010904/DTD/svg10.dtd">
<svg version="1.0" xmlns="http://www.w3.org/2000/svg"
 width="400.000000pt" height="400.000000pt" viewBox="0 0 400.000000 400.000000"
 preserveAspectRatio="xMidYMid meet">
<metadata>
Created by potrace 1.14, written by Peter Selinger 2001-2017
</metadata>
<g transform="translate(0.000000,400.000000) scale(0.100000,-0.100000)"
fill="#000000" stroke="none">
<path d="M1958 2873 c-9 -10 -100 -164 -203 -343 -103 -179 -194 -333 -203
-342 -8 -10 -26 -18 -38 -18 -27 0 -31 6 -132 180 l-67 115 -40 0 -39 0 -367
-635 c-201 -349 -369 -645 -373 -657 -5 -17 -1 -29 18 -48 l25 -25 254 0 c228
0 257 2 275 18 12 9 105 163 208 342 102 179 193 333 202 343 8 9 28 17 43 17
25 0 34 -11 85 -97 90 -154 94 -121 -35 -345 -121 -211 -130 -240 -81 -265 19
-10 141 -13 512 -13 l487 0 25 23 c29 26 506 851 506 874 0 17 -231 425 -258
456 -24 27 -68 22 -92 -10 -11 -16 -159 -269 -328 -563 -371 -642 -339 -611
-445 -422 -30 53 -57 104 -59 112 -7 20 -7 20 224 420 260 448 244 416 225
456 -34 71 -240 420 -255 432 -23 17 -56 15 -74 -5z"/>
<path d="M3146 1603 c-68 -106 -246 -425 -246 -442 0 -11 12 -29 27 -41 26
-20 35 -21 286 -18 243 3 260 4 273 22 8 11 14 29 14 40 0 19 -227 422 -258
459 -8 9 -28 17 -43 17 -22 0 -34 -9 -53 -37z"/>
</g>
</svg>
